<svg id="Layer_1" xmlns="http://www.w3.org/2000/svg" viewBox="0 0 1295 496.62">
  <rect width="1295" height="496.62" style="fill:none"></rect>
  <path d="M1483,393.11" transform="translate(-188.64 -78.18)" style="fill:none"></path>
  <rect width="1295" height="496.62" style="fill:none"></rect>
  <g>
    <g>
      <g>
        <rect x="97.32" y="105.29" width="31.52" height="150.33" style="fill:#1d1d1b"></rect>
        <path d="M519.55,245.22c-24.78-6.78-30.92-10.06-30.92-20.09v-.44c0-7.44,6.34-13.34,18.44-13.34s24.56,5.67,37.26,15.07l17.41-26.8c-14.53-12.47-33.38-21.28-54.28-21.28-29.29,0-52.74,17.7-52.74,47.42v2.42c0,26.56,21.21,38.9,50.09,46.75,23.95,6.58,27.87,13.57,27.87,20.52v.41c0,6.26-6.79,12.54-19.69,12.54-16.39,0-29.89-7.21-45.84-19.73L448.5,313.35c20.25,17.52,42.19,25.6,63.88,25.6,30.93,0,55.25-15.75,55.25-46.12v-.45C567.63,265.74,548.63,253.31,519.55,245.22Z" transform="translate(-188.64 -78.18)" style="fill:#1d1d1b"></path>
        <polygon points="435.18 194.63 502.76 194.63 502.76 165.22 435.18 165.22 435.18 134.73 511.98 134.73 511.98 105.3 403.84 105.3 403.84 255.62 513 255.62 513 226.21 435.18 226.21 435.18 194.63" style="fill:#1d1d1b"></polygon>
      </g>
      <path d="M813.32,182.09V157.72H785.2v24.45c-36.71,6.63-62.12,38.49-62.12,76.47v.41c0,42.76,31.76,77.32,76,77.32s76.39-35,76.39-77.73v-.43C875.46,220.07,850.19,188.48,813.32,182.09Zm29.16,77c0,25.79-17.61,46.84-43,46.84s-43.41-21.5-43.41-47.25v-.43c0-25.79,17.61-46.81,43-46.81s43.41,21.47,43.41,47.24Z" transform="translate(-188.64 -78.18)" style="fill:#1d1d1b"></path>
      <path d="M993.36,269.59c0,23.83-11.68,36.08-30.94,36.08S931.51,293,931.51,268.51v-85H900v85.9c0,44.25,23.56,66.8,62,66.8s62.87-22.35,62.87-67.88V183.47H993.36Z" transform="translate(-188.64 -78.18)" style="fill:#1d1d1b"></path>
      <polygon points="899.97 105.3 868.44 105.3 868.44 255.62 971.46 255.62 971.46 225.56 899.97 225.56 899.97 105.3" style="fill:#1d1d1b"></polygon>
      <path d="M1351.67,183.47v86.12c0,23.83-11.67,36.08-30.93,36.08s-30.91-12.67-30.91-37.16v-85h-31.54v85.9c0,44.25,23.56,66.8,62.07,66.8s62.87-22.35,62.87-67.88V183.47Z" transform="translate(-188.64 -78.18)" style="fill:#1d1d1b"></path>
      <path d="M408,254.19c0,12.65-9.8,22.93-21.86,22.93s-21.86-10.28-21.86-22.93,9.78-22.91,21.86-22.91S408,241.54,408,254.19Z" transform="translate(-188.64 -78.18)" style="fill:#c20831"></path>
      <path d="M1211.53,254.19c0,12.65-9.78,22.93-21.86,22.93s-21.86-10.28-21.86-22.93,9.78-22.91,21.86-22.91S1211.53,241.54,1211.53,254.19Z" transform="translate(-188.64 -78.18)" style="fill:#5e9ad3"></path>
    </g>
    <g>
      <path d="M912.67,435.45c-4.49,7.32-9.13,13.06-14,17L893,447.88a63.06,63.06,0,0,0,13.47-15.79q5.71-9.66,5.71-24.45v-9.4h7.31v9.48a67.18,67.18,0,0,1-1.29,13.47l19,25L932,451l-16.29-21.35A41.42,41.42,0,0,1,912.67,435.45Z" transform="translate(-188.64 -78.18)" style="fill:#696a6c"></path>
      <polygon points="764.73 315.92 764.73 391.29 757.51 391.29 757.51 345 738.73 345 738.73 338.07 757.51 338.07 757.51 315.92 764.73 315.92" style="fill:#696a6c"></polygon>
      <path d="M1024.33,425.4v6.46H996.54v5.82h18.57v18.56H977.89v6.89h38v6.37H970.73V450h37.15v-6H970.73v-6.37h18.8v-5.82H961.67V425.4Zm-9.07-17.12c0,4.13-2.21,7.49-6.55,10.11a25.35,25.35,0,0,1-7.15,2.71,33.83,33.83,0,0,1-8.6,1,32.48,32.48,0,0,1-8.53-1,24.55,24.55,0,0,1-7.15-2.71c-4.41-2.46-6.55-5.81-6.55-10.11,0-4.07,2.14-7.41,6.55-10.12a30.55,30.55,0,0,1,7.15-2.79,36.31,36.31,0,0,1,8.53-.95,37.85,37.85,0,0,1,8.6.95,31.82,31.82,0,0,1,7.15,2.79C1013.05,400.78,1015.26,404.13,1015.26,408.28Zm-7.23.08c0-2.24-1.37-4-4-5.26a34.17,34.17,0,0,0-4.94-1.6A38.62,38.62,0,0,0,993,401a36.27,36.27,0,0,0-6,.55,29.3,29.3,0,0,0-4.94,1.6c-2.75,1.35-4,3.11-4,5.26s1.29,3.82,4,5.18a19.72,19.72,0,0,0,4.94,1.51,24.08,24.08,0,0,0,6,.63,25.39,25.39,0,0,0,6.09-.63,21.71,21.71,0,0,0,4.94-1.51C1006.66,412.27,1008,410.59,1008,408.36Z" transform="translate(-188.64 -78.18)" style="fill:#696a6c"></path>
      <g>
        <path d="M682.58,447V435.18a19.34,19.34,0,0,0,3.81-1.19,17.49,17.49,0,0,0,5.94-4.07,20.07,20.07,0,0,0,5.39-13.71,21,21,0,0,0-1.44-7.56,20.42,20.42,0,0,0-3.95-6.13,17.92,17.92,0,0,0-13.25-5.59,18.1,18.1,0,0,0-7.23,1.45,18.41,18.41,0,0,0-6,4.14,18.83,18.83,0,0,0-4,6.13,19.42,19.42,0,0,0-1.45,7.56,20.14,20.14,0,0,0,5.4,13.71,17,17,0,0,0,6,4.07,11.17,11.17,0,0,0,3.87,1.19v11.95H656.09v6.69h19a211.06,211.06,0,0,0,28.49-1.75v-6.7A182.63,182.63,0,0,1,682.58,447Zm-8-19.27a10.51,10.51,0,0,1-3.66-2.62,12,12,0,0,1-2.43-4.07,12.79,12.79,0,0,1-.91-4.87,13.37,13.37,0,0,1,.91-4.85,13.54,13.54,0,0,1,2.43-4.06,10.28,10.28,0,0,1,3.66-2.63,10.55,10.55,0,0,1,4.49-1,11.09,11.09,0,0,1,4.49,1,12,12,0,0,1,3.66,2.63,16,16,0,0,1,2.44,4.06,13.58,13.58,0,0,1,.91,4.85,13,13,0,0,1-.91,4.87,13.94,13.94,0,0,1-2.44,4.07,12.36,12.36,0,0,1-3.66,2.62,11.08,11.08,0,0,1-4.49,1A10.54,10.54,0,0,1,674.59,427.77Z" transform="translate(-188.64 -78.18)" style="fill:#696a6c"></path>
        <polygon points="524.79 391.09 517.56 391.09 517.56 315.92 524.79 315.92 524.79 344.17 535.15 344.17 535.15 351.49 524.79 351.49 524.79 391.09" style="fill:#696a6c"></polygon>
      </g>
      <g>
        <polygon points="567.57 320.86 567.57 362.93 598.7 362.93 598.7 369.77 560.26 369.77 560.26 320.86 567.57 320.86" style="fill:#696a6c"></polygon>
        <polygon points="612.11 315.92 612.11 344.17 622.46 344.17 622.46 351.49 612.11 351.49 612.11 391.29 604.87 391.29 604.87 315.92 612.11 315.92" style="fill:#696a6c"></polygon>
      </g>
      <g>
        <path d="M830,447.13c11,0,21.42-.29,31.21-1.76v6.7a240.58,240.58,0,0,1-31.36,1.75H813.71v-6.69Z" transform="translate(-188.64 -78.18)" style="fill:#696a6c"></path>
        <path d="M853.87,408.63a22.52,22.52,0,0,0-4-6.11,18.19,18.19,0,0,0-13.12-5.64,18.55,18.55,0,0,0-13.2,5.64,18.8,18.8,0,0,0-3.95,6.11,18.34,18.34,0,0,0-1.52,7.53,18.14,18.14,0,0,0,1.52,7.55,17.92,17.92,0,0,0,3.95,6.27,18.66,18.66,0,0,0,13.2,5.64A18.29,18.29,0,0,0,849.84,430a19.83,19.83,0,0,0,5.46-13.82A21.52,21.52,0,0,0,853.87,408.63Zm-6.6,12.62a13.21,13.21,0,0,1-2.44,4.05,10.71,10.71,0,0,1-8.11,3.66,10.23,10.23,0,0,1-4.41-1,10.5,10.5,0,0,1-3.7-2.7,11.66,11.66,0,0,1-2.44-4.05,13.26,13.26,0,0,1-.9-4.91,14,14,0,0,1,.9-5,13.23,13.23,0,0,1,2.44-4.05,11.44,11.44,0,0,1,3.7-2.7,10.22,10.22,0,0,1,4.41-.95,11.07,11.07,0,0,1,4.48.95,12.2,12.2,0,0,1,3.63,2.7,15.28,15.28,0,0,1,2.44,4.05,14,14,0,0,1,.9,5A13.26,13.26,0,0,1,847.27,421.25Z" transform="translate(-188.64 -78.18)" style="fill:#696a6c"></path>
        <rect x="675.18" y="315.92" width="7.26" height="75.18" style="fill:#696a6c"></rect>
      </g>
      <path d="M599.87,399v42.08h31.06V448H592.48V399Zm44.47-4.93v75.37H637.1v-46.3H618.33v-6.84H637.1V394.1Z" transform="translate(-188.64 -78.18)" style="fill:#696a6c"></path>
    </g>
  </g>
</svg>
